<?xml version="1.0" standalone="no"?>
<!DOCTYPE svg PUBLIC "-//W3C//DTD SVG 1.1//EN"
"http://www.w3.org/Graphics/SVG/1.1/DTD/svg11.dtd">

<svg width="304" height="130" viewBox="0 0 304 130"
xmlns="http://www.w3.org/2000/svg"
xmlns:link="http://www.w3.org/1999/xlink">

<desc>Généré par Mocodo 1.6.1 le Thu, 24 Apr 2014 00:02:04</desc>

<rect x="0" y="0" width="304" height="130" fill="none" stroke="none" stroke-width="0"/>

<!-- Association Place -->
<line x1="61" y1="65" x2="167" y2="65" stroke="#4C3D30" stroke-width="2"/>
<text x="118" y="81.9" fill="#5C4827" font-family="Verdana" font-size="12">0,N</text>
<line x1="258" y1="65" x2="167" y2="65" stroke="#4C3D30" stroke-width="2"/>
<text x="195" y="81.9" fill="#5C4827" font-family="Verdana" font-size="12">1,1</text>
<g id="association-Place">
	<path d="M 176 41 a 14 14 90 0 1 14 14 V 65 h -46 V 55 a 14 14 90 0 1 14 -14" fill="#CE9F6F" stroke="#CE9F6F" stroke-width="0"/>
	<path d="M 190 65 v 10 a 14 14 90 0 1 -14 14 H 158 a 14 14 90 0 1 -14 -14 V 65 H 46" fill="#E2BE9F" stroke="#E2BE9F" stroke-width="0"/>
	<rect x="144" y="41" width="46" height="48" fill="None" rx="14" stroke="#896C39" stroke-width="2"/>
	<line x1="144" y1="65" x2="190" y2="65" stroke="#896C39" stroke-width="1"/>
	<text x="151" y="57.9" fill="#7F5D3B" font-family="Verdana" font-size="12">Place</text>
</g>

<!-- Entity CUSTOMER1 -->
<g id="entity-CUSTOMER1">
	<g id="frame-CUSTOMER1">
		<rect x="9" y="17" width="104" height="24" fill="#FAA945" stroke="#FAA945" stroke-width="0"/>
		<rect x="9" y="41" width="104" height="72" fill="#FFB94E" stroke="#FFB94E" stroke-width="0"/>
		<rect x="9" y="17" width="104" height="96" fill="None" stroke="#CB7E1F" stroke-width="2"/>
		<line x1="9" y1="41" x2="113" y2="41" stroke="#CB7E1F" stroke-width="1"/>
	</g>
	<text x="27" y="33.9" fill="#645530" font-family="Verdana" font-size="12">CUSTOMER</text>
	<text x="14" y="57.9" fill="#645530" font-family="Verdana" font-size="12">CustomerID</text>
	<line x1="14" y1="60.0" x2="86" y2="60.0" stroke="#645530" stroke-width="1"/>
	<text x="14" y="73.9" fill="#645530" font-family="Verdana" font-size="12">CustomerName</text>
	<text x="14" y="89.9" fill="#645530" font-family="Verdana" font-size="12">YTDOrders</text>
	<text x="14" y="105.9" fill="#645530" font-family="Verdana" font-size="12">YTDSales</text>
</g>

<!-- Entity ORDER2 -->
<g id="entity-ORDER2">
	<g id="frame-ORDER2">
		<rect x="221" y="9" width="74" height="24" fill="#FAA945" stroke="#FAA945" stroke-width="0"/>
		<rect x="221" y="33" width="74" height="88" fill="#FFB94E" stroke="#FFB94E" stroke-width="0"/>
		<rect x="221" y="9" width="74" height="112" fill="None" stroke="#CB7E1F" stroke-width="2"/>
		<line x1="221" y1="33" x2="295" y2="33" stroke="#CB7E1F" stroke-width="1"/>
	</g>
	<text x="236" y="25.9" fill="#645530" font-family="Verdana" font-size="12">ORDER</text>
	<text x="226" y="49.9" fill="#645530" font-family="Verdana" font-size="12">OrderID</text>
	<line x1="226" y1="52.0" x2="275" y2="52.0" stroke="#645530" stroke-width="1"/>
	<text x="226" y="65.9" fill="#645530" font-family="Verdana" font-size="12">OrderDate</text>
	<text x="226" y="81.9" fill="#645530" font-family="Verdana" font-size="12">FilledDate</text>
	<text x="226" y="97.9" fill="#645530" font-family="Verdana" font-size="12">Status</text>
	<text x="226" y="113.9" fill="#645530" font-family="Verdana" font-size="12">Amount</text>
</g>
</svg>